<svg width="15" height="15" viewBox="0 0 15 15" fill="none" xmlns="http://www.w3.org/2000/svg">
<path fill-rule="evenodd" clip-rule="evenodd" d="M10.1208 0.528126C9.9707 0.31591 9.75812 0.155787 9.51271 0.0700444C9.2673 -0.0156979 9.00126 -0.022793 8.75162 0.0497475L6.97984 0.563708C6.79826 0.616406 6.6071 0.627227 6.42073 0.595358L4.60226 0.284639C4.34604 0.240734 4.0825 0.277809 3.84833 0.3907C3.61416 0.503591 3.42101 0.686682 3.29577 0.914487L2.40574 2.53137C2.31494 2.69677 2.18778 2.83919 2.03375 2.94907L0.527636 4.0159C0.315793 4.1659 0.155903 4.37813 0.0701585 4.62313C-0.0155856 4.86814 -0.0229301 5.13376 0.0491445 5.38312L0.563218 7.1569C0.615745 7.33817 0.626546 7.52898 0.594812 7.71501L0.284149 9.53448C0.240461 9.79055 0.277635 10.0539 0.390504 10.2878C0.503373 10.5218 0.686329 10.7148 0.91394 10.84L2.53083 11.73C2.69622 11.8208 2.83864 11.948 2.94852 12.102L4.01535 13.6081C4.32239 14.0424 4.87213 14.2347 5.38358 14.0865L7.15536 13.5726C7.33694 13.5199 7.5281 13.5091 7.71446 13.5409L9.53393 13.8516C9.79 13.8953 10.0533 13.8581 10.2873 13.7452C10.5212 13.6324 10.7142 13.4494 10.8394 13.2218L11.7295 11.6049C11.8203 11.4395 11.9474 11.2971 12.1015 11.1882L13.6086 10.1213C13.8206 9.97106 13.9806 9.75844 14.0661 9.51304C14.1517 9.26765 14.1586 9.00169 14.086 8.75217L13.573 6.98033C13.5203 6.79875 13.5095 6.60759 13.5414 6.42122L13.852 4.60175C13.8958 4.34579 13.8588 4.08253 13.7461 3.84857C13.6334 3.6146 13.4507 3.42154 13.2233 3.29621L11.6054 2.40623C11.4402 2.31523 11.2977 2.18804 11.1887 2.03418L10.1208 0.528126ZM9.8519 4.67696C9.90723 4.55991 9.91499 4.42597 9.87357 4.30331C9.83214 4.18065 9.74476 4.07884 9.6298 4.0193C9.51484 3.95976 9.38126 3.94714 9.25718 3.98408C9.1331 4.02102 9.02818 4.10465 8.96451 4.21738L6.60384 8.7841L4.94191 7.36376C4.89242 7.31838 4.8343 7.28344 4.77102 7.26101C4.70774 7.23859 4.64058 7.22914 4.57357 7.23322C4.50655 7.23731 4.44104 7.25485 4.38096 7.2848C4.32087 7.31475 4.26742 7.3565 4.22382 7.40755C4.18021 7.4586 4.14733 7.51791 4.12714 7.58195C4.10695 7.64598 4.09987 7.71342 4.10631 7.78025C4.11275 7.84708 4.13258 7.91193 4.16462 7.97093C4.19667 8.02993 4.24027 8.08187 4.29282 8.12366L6.43372 9.95458C6.49102 10.0035 6.55861 10.0388 6.63147 10.0579C6.70433 10.077 6.78056 10.0794 6.85447 10.0649C6.92839 10.0504 6.99807 10.0194 7.05832 9.97422C7.11858 9.92903 7.16784 9.8708 7.20243 9.8039L9.8519 4.67696Z" fill="#FDFDFD"/>
</svg>
