<svg width="29" height="29" viewBox="0 0 29 29" fill="none" xmlns="http://www.w3.org/2000/svg">
<path d="M14.4165 28.833C6.46882 28.833 0 22.3642 0 14.4165C0 6.46882 6.46882 0 14.4165 0C22.3642 0 28.833 6.46882 28.833 14.4165C28.833 22.3642 22.3642 28.833 14.4165 28.833ZM14.4165 2.32524C7.7477 2.32524 2.32524 7.7477 2.32524 14.4165C2.32524 21.0853 7.7477 26.5077 14.4165 26.5077C21.0853 26.5077 26.5077 21.0853 26.5077 14.4165C26.5077 7.7477 21.0853 2.32524 14.4165 2.32524Z" fill="#FDFDFD"/>
<path d="M10.2318 12.9982C7.50661 12.9982 4.5582 12.5936 1.41448 11.7751C0.791314 11.6123 0.419275 10.9799 0.582042 10.3567C0.744809 9.73352 1.37727 9.36149 2.00044 9.52425C11.5246 11.9983 18.9793 10.4311 23.5554 4.99933C23.9693 4.51103 24.7041 4.44593 25.1924 4.85982C25.6853 5.27371 25.7458 6.00849 25.3319 6.49679C21.6999 10.8078 16.5657 12.9982 10.2318 12.9982Z" fill="#FDFDFD"/>
<path d="M4.41882 24.2798C4.14909 24.2798 3.88402 24.1868 3.66544 24.0007C3.17714 23.5822 3.12134 22.8474 3.53523 22.3591C10.3342 14.4114 19.1329 12.5233 27.6759 17.1878C28.2386 17.4947 28.4479 18.2016 28.1409 18.7643C27.834 19.327 27.1271 19.5363 26.5644 19.2293C16.3055 13.6348 8.84143 19.7362 5.30241 23.8752C5.07454 24.1403 4.74901 24.2798 4.41882 24.2798Z" fill="#FDFDFD"/>
<path d="M18.2251 28.2752C18.1832 28.2752 18.1414 28.2752 18.0995 28.2706C17.4624 28.2008 17.002 27.6288 17.0718 26.987C17.9786 18.672 15.8394 10.2871 10.7192 2.0558C10.3797 1.51169 10.5471 0.795515 11.0913 0.45603C11.6354 0.116545 12.3515 0.283962 12.691 0.828068C18.0949 9.51052 20.3457 18.3976 19.3831 27.2428C19.3133 27.8381 18.8111 28.2752 18.2251 28.2752Z" fill="#FDFDFD"/>
</svg>
