<svg width="25" height="25" viewBox="0 0 25 25" fill="none" xmlns="http://www.w3.org/2000/svg">
<path d="M8.00544 12.0107C8.00544 9.79965 9.79682 8.00679 12.0072 8.00679C14.2176 8.00679 16.0099 9.79965 16.0099 12.0107C16.0099 14.2217 14.2176 16.0145 12.0072 16.0145C9.79682 16.0145 8.00544 14.2217 8.00544 12.0107ZM5.84165 12.0107C5.84165 15.4169 8.60196 18.178 12.0072 18.178C15.4124 18.178 18.1728 15.4169 18.1728 12.0107C18.1728 8.60444 15.4124 5.84333 12.0072 5.84333C8.60196 5.84333 5.84165 8.60444 5.84165 12.0107ZM16.976 5.5988C16.9759 5.88385 17.0603 6.16255 17.2185 6.39963C17.3767 6.63671 17.6017 6.82153 17.8649 6.93072C18.1281 7.03991 18.4178 7.06857 18.6974 7.01307C18.9769 6.95757 19.2337 6.82041 19.4353 6.61892C19.6369 6.41743 19.7742 6.16068 19.8299 5.88112C19.8856 5.60156 19.8572 5.31175 19.7482 5.04835C19.6393 4.78495 19.4547 4.55978 19.2178 4.40131C18.9809 4.24285 18.7024 4.15821 18.4174 4.15809H18.4168C18.0349 4.15827 17.6686 4.3101 17.3984 4.58023C17.1282 4.85036 16.9763 5.2167 16.976 5.5988ZM7.15629 21.7871C5.98564 21.7337 5.34935 21.5387 4.92651 21.3739C4.36591 21.1556 3.96593 20.8956 3.54539 20.4755C3.12485 20.0554 2.86453 19.6557 2.64725 19.0949C2.48242 18.6722 2.28742 18.0355 2.2342 16.8645C2.17599 15.5985 2.16437 15.2182 2.16437 12.0108C2.16437 8.80334 2.17695 8.42409 2.2342 7.15701C2.28752 5.98602 2.48395 5.35061 2.64725 4.92658C2.86549 4.36583 3.12543 3.96573 3.54539 3.54507C3.96535 3.12441 4.36495 2.86402 4.92651 2.64667C5.34916 2.48179 5.98564 2.28673 7.15629 2.2335C8.42195 2.17528 8.80214 2.16365 12.0072 2.16365C15.2123 2.16365 15.5928 2.17624 16.8596 2.2335C18.0302 2.28683 18.6654 2.48333 19.0893 2.64667C19.6499 2.86402 20.0499 3.12498 20.4705 3.54507C20.891 3.96515 21.1503 4.36583 21.3686 4.92658C21.5334 5.34936 21.7284 5.98602 21.7816 7.15701C21.8398 8.42409 21.8515 8.80334 21.8515 12.0108C21.8515 15.2182 21.8398 15.5974 21.7816 16.8645C21.7283 18.0355 21.5324 18.672 21.3686 19.0949C21.1503 19.6557 20.8904 20.0558 20.4705 20.4755C20.0505 20.8952 19.6499 21.1556 19.0893 21.3739C18.6667 21.5388 18.0302 21.7338 16.8596 21.7871C15.5939 21.8453 15.2137 21.8569 12.0072 21.8569C8.8007 21.8569 8.42156 21.8453 7.15629 21.7871ZM7.05687 0.0727366C5.77863 0.130964 4.90518 0.333704 4.14239 0.630608C3.35241 0.937216 2.68366 1.34856 2.01538 2.01597C1.34711 2.68338 0.936946 3.35338 0.630426 4.14358C0.333608 4.90708 0.130927 5.7803 0.0727156 7.05891C0.0135441 8.33953 0 8.74895 0 12.0107C0 15.2724 0.0135441 15.6818 0.0727156 16.9624C0.130927 18.2411 0.333608 19.1143 0.630426 19.8777C0.936946 20.6675 1.34721 21.3382 2.01538 22.0054C2.68356 22.6725 3.35241 23.0833 4.14239 23.3907C4.90662 23.6876 5.77863 23.8904 7.05687 23.9486C8.3378 24.0068 8.74643 24.0213 12.0072 24.0213C15.268 24.0213 15.6773 24.0078 16.9575 23.9486C18.2359 23.8904 19.1087 23.6876 19.872 23.3907C20.6615 23.0833 21.3307 22.6728 21.999 22.0054C22.6673 21.338 23.0766 20.6675 23.384 19.8777C23.6808 19.1143 23.8844 18.241 23.9417 16.9624C23.9999 15.6808 24.0134 15.2724 24.0134 12.0107C24.0134 8.74895 23.9999 8.33953 23.9417 7.05891C23.8835 5.78021 23.6808 4.9066 23.384 4.14358C23.0766 3.35386 22.6662 2.68443 21.999 2.01597C21.3318 1.3475 20.6615 0.937216 19.873 0.630608C19.1087 0.333704 18.2358 0.130003 16.9585 0.0727366C15.6782 0.0145089 15.2689 0 12.0082 0C8.74739 0 8.3378 0.013548 7.05687 0.0727366Z" fill="#FDFDFD"/>
<path d="M8.00544 12.0107C8.00544 9.79965 9.79682 8.00679 12.0072 8.00679C14.2176 8.00679 16.0099 9.79965 16.0099 12.0107C16.0099 14.2217 14.2176 16.0145 12.0072 16.0145C9.79682 16.0145 8.00544 14.2217 8.00544 12.0107ZM5.84165 12.0107C5.84165 15.4169 8.60196 18.178 12.0072 18.178C15.4124 18.178 18.1728 15.4169 18.1728 12.0107C18.1728 8.60444 15.4124 5.84333 12.0072 5.84333C8.60196 5.84333 5.84165 8.60444 5.84165 12.0107ZM16.976 5.5988C16.9759 5.88385 17.0603 6.16255 17.2185 6.39963C17.3767 6.63671 17.6017 6.82153 17.8649 6.93072C18.1281 7.03991 18.4178 7.06857 18.6974 7.01307C18.9769 6.95757 19.2337 6.82041 19.4353 6.61892C19.6369 6.41743 19.7742 6.16068 19.8299 5.88112C19.8856 5.60156 19.8572 5.31175 19.7482 5.04835C19.6393 4.78495 19.4547 4.55978 19.2178 4.40131C18.9809 4.24285 18.7024 4.15821 18.4174 4.15809H18.4168C18.0349 4.15827 17.6686 4.3101 17.3984 4.58023C17.1282 4.85036 16.9763 5.2167 16.976 5.5988ZM7.15629 21.7871C5.98564 21.7337 5.34935 21.5387 4.92651 21.3739C4.36591 21.1556 3.96593 20.8956 3.54539 20.4755C3.12485 20.0554 2.86453 19.6557 2.64725 19.0949C2.48242 18.6722 2.28742 18.0355 2.2342 16.8645C2.17599 15.5985 2.16437 15.2182 2.16437 12.0108C2.16437 8.80334 2.17695 8.42409 2.2342 7.15701C2.28752 5.98602 2.48395 5.35061 2.64725 4.92658C2.86549 4.36583 3.12543 3.96573 3.54539 3.54507C3.96535 3.12441 4.36495 2.86402 4.92651 2.64667C5.34916 2.48179 5.98564 2.28673 7.15629 2.2335C8.42195 2.17528 8.80214 2.16365 12.0072 2.16365C15.2123 2.16365 15.5928 2.17624 16.8596 2.2335C18.0302 2.28683 18.6654 2.48333 19.0893 2.64667C19.6499 2.86402 20.0499 3.12498 20.4705 3.54507C20.891 3.96515 21.1503 4.36583 21.3686 4.92658C21.5334 5.34936 21.7284 5.98602 21.7816 7.15701C21.8398 8.42409 21.8515 8.80334 21.8515 12.0108C21.8515 15.2182 21.8398 15.5974 21.7816 16.8645C21.7283 18.0355 21.5324 18.672 21.3686 19.0949C21.1503 19.6557 20.8904 20.0558 20.4705 20.4755C20.0505 20.8952 19.6499 21.1556 19.0893 21.3739C18.6667 21.5388 18.0302 21.7338 16.8596 21.7871C15.5939 21.8453 15.2137 21.8569 12.0072 21.8569C8.8007 21.8569 8.42156 21.8453 7.15629 21.7871ZM7.05687 0.0727366C5.77863 0.130964 4.90518 0.333704 4.14239 0.630608C3.35241 0.937216 2.68366 1.34856 2.01538 2.01597C1.34711 2.68338 0.936946 3.35338 0.630426 4.14358C0.333608 4.90708 0.130927 5.7803 0.0727156 7.05891C0.0135441 8.33953 0 8.74895 0 12.0107C0 15.2724 0.0135441 15.6818 0.0727156 16.9624C0.130927 18.2411 0.333608 19.1143 0.630426 19.8777C0.936946 20.6675 1.34721 21.3382 2.01538 22.0054C2.68356 22.6725 3.35241 23.0833 4.14239 23.3907C4.90662 23.6876 5.77863 23.8904 7.05687 23.9486C8.3378 24.0068 8.74643 24.0213 12.0072 24.0213C15.268 24.0213 15.6773 24.0078 16.9575 23.9486C18.2359 23.8904 19.1087 23.6876 19.872 23.3907C20.6615 23.0833 21.3307 22.6728 21.999 22.0054C22.6673 21.338 23.0766 20.6675 23.384 19.8777C23.6808 19.1143 23.8844 18.241 23.9417 16.9624C23.9999 15.6808 24.0134 15.2724 24.0134 12.0107C24.0134 8.74895 23.9999 8.33953 23.9417 7.05891C23.8835 5.78021 23.6808 4.9066 23.384 4.14358C23.0766 3.35386 22.6662 2.68443 21.999 2.01597C21.3318 1.3475 20.6615 0.937216 19.873 0.630608C19.1087 0.333704 18.2358 0.130003 16.9585 0.0727366C15.6782 0.0145089 15.2689 0 12.0082 0C8.74739 0 8.3378 0.013548 7.05687 0.0727366Z" fill="#FDFDFD"/>
</svg>
