<svg width="21" height="20" viewBox="0 0 21 20" fill="none" xmlns="http://www.w3.org/2000/svg">
<path d="M4.55974 19.2166V6.25043H0.253806V19.2166H4.56019H4.55974ZM2.40767 4.48043C3.90893 4.48043 4.84356 3.48478 4.84356 2.24049C4.81545 0.967862 3.90893 0 2.43622 0C0.962507 0 0 0.967862 0 2.24038C0 3.48466 0.934293 4.48031 2.37946 4.48031H2.40733L2.40767 4.48043ZM6.94313 19.2166H11.2487V11.9765C11.2487 11.5895 11.2768 11.2015 11.3906 10.925C11.7017 10.1505 12.4102 9.34865 13.6 9.34865C15.1577 9.34865 15.7812 10.5376 15.7812 12.2808V19.2166H20.0866V11.7822C20.0866 7.79971 17.9627 5.94645 15.1298 5.94645C12.8072 5.94645 11.7871 7.24575 11.2204 8.13069H11.2491V6.25088H6.94336C6.99956 7.46727 6.94302 19.2171 6.94302 19.2171L6.94313 19.2166Z" fill="#FDFDFD"/>
</svg>
